<svg width="37" height="37" viewBox="0 0 37 37" fill="none" xmlns="http://www.w3.org/2000/svg">
<path d="M27.4263 35.0729H9.57375C5.34958 35.0729 1.92708 31.635 1.92708 27.4108V15.9871C1.92708 13.8904 3.22208 11.2542 4.88708 9.95917L13.1967 3.48417C15.6942 1.54167 19.6871 1.44917 22.2771 3.26833L31.8046 9.94375C33.6392 11.2233 35.0729 13.9675 35.0729 16.2029V27.4263C35.0729 31.635 31.6504 35.0729 27.4263 35.0729ZM14.615 5.30333L6.30542 11.7783C5.21083 12.6417 4.23958 14.5996 4.23958 15.9871V27.4108C4.23958 30.3554 6.62917 32.7604 9.57375 32.7604H27.4263C30.3708 32.7604 32.7604 30.3708 32.7604 27.4263V16.2029C32.7604 14.7229 31.6967 12.6725 30.4788 11.84L20.9513 5.16458C19.1938 3.93125 16.2954 3.99292 14.615 5.30333Z" fill="#030303"/>
<path d="M18.5 28.9062C17.8679 28.9062 17.3438 28.3821 17.3438 27.75V23.125C17.3438 22.4929 17.8679 21.9688 18.5 21.9688C19.1321 21.9688 19.6562 22.4929 19.6562 23.125V27.75C19.6562 28.3821 19.1321 28.9062 18.5 28.9062Z" fill="#030303"/>
</svg>
