<svg width="19" height="19" viewBox="0 0 19 19" fill="none" xmlns="http://www.w3.org/2000/svg">
<path d="M9.51584 2.30377C6.89543 2.30377 4.76584 4.43336 4.76584 7.05377V9.34169C4.76584 9.82461 4.56001 10.5609 4.31459 10.9725L3.40418 12.4846C2.84209 13.4188 3.23001 14.4559 4.25918 14.8042C7.67126 15.9442 11.3525 15.9442 14.7646 14.8042C15.7225 14.4875 16.1421 13.3554 15.6196 12.4846L14.7092 10.9725C14.4717 10.5609 14.2658 9.82461 14.2658 9.34169V7.05377C14.2658 4.44127 12.1283 2.30377 9.51584 2.30377Z" stroke="#030303" stroke-width="1.5" stroke-miterlimit="10" stroke-linecap="round"/>
<path d="M10.9804 2.53333C10.735 2.46208 10.4817 2.40666 10.2204 2.37499C9.46044 2.27999 8.7321 2.33541 8.05127 2.53333C8.28085 1.94749 8.85085 1.53583 9.51585 1.53583C10.1809 1.53583 10.7509 1.94749 10.9804 2.53333Z" stroke="#030303" stroke-width="1.5" stroke-miterlimit="10" stroke-linecap="round" stroke-linejoin="round"/>
<path d="M11.8909 15.0892C11.8909 16.3954 10.8221 17.4642 9.51587 17.4642C8.8667 17.4642 8.26504 17.195 7.83754 16.7675C7.41004 16.34 7.14087 15.7383 7.14087 15.0892" stroke="#030303" stroke-width="1.5" stroke-miterlimit="10"/>
</svg>
